<?xml version="1.0" standalone="no"?><!DOCTYPE svg PUBLIC "-//W3C//DTD SVG 1.1//EN" "http://www.w3.org/Graphics/SVG/1.1/DTD/svg11.dtd"><svg t="1538926649257" class="icon" style="" viewBox="0 0 1024 1024" version="1.1" xmlns="http://www.w3.org/2000/svg" p-id="10307" xmlns:xlink="http://www.w3.org/1999/xlink" width="9" height="9"><defs><style type="text/css"></style></defs><path d="M956.928 1018.88H61.952c-49.664-76.288-29.696-228.352 19.968-279.04 23.552-24.064 200.704-69.632 285.696-90.624C278.016 579.584 223.744 450.56 223.744 327.68 223.744 148.48 275.456 3.584 509.44 3.584 743.424 3.584 795.136 148.48 795.136 327.68c0 122.88-54.272 251.392-143.36 321.024 82.944 20.48 262.656 67.584 285.696 91.136 49.152 50.688 68.608 202.752 19.456 279.04z m-60.416-225.792c-32.768-17.408-172.544-56.832-291.84-85.504v-100.352c79.36-54.272 126.976-172.032 126.976-278.528 0-144.384-36.864-261.632-222.208-261.632-184.832 0-222.208 117.248-222.208 261.632 0 107.008 47.104 224.768 126.976 279.04v101.376c-119.808 28.16-259.072 66.56-291.328 83.968-20.48 26.112-38.912 110.08-26.112 162.304H921.6c13.312-52.224-4.608-135.68-25.088-162.304z" p-id="10308" fill="#93999F"></path></svg>